<svg width="48" height="54" viewBox="0 0 48 54" fill="none" xmlns="http://www.w3.org/2000/svg">
<g id="oval">
<path id="Fill 1" fill-rule="evenodd" clip-rule="evenodd" d="M33.0058 47.1572C43.299 46.5409 46.6051 44.6189 47.6007 43.7295L45.9834 42.2301C46.7625 42.7651 47.4632 43.1098 47.9699 43.3206C47.9918 43.2871 48 43.2686 48 43.2686C45.8113 41.5933 44.2474 35.0056 44.2474 35.0056C42.997 31.7671 42.0588 20.0436 42.0588 20.0436C42.0588 16.6938 40.8084 13.2322 40.8084 13.2322C38.5148 6.19782 33.4076 2.95964 33.4076 2.95964C32.9883 2.69396 32.5635 2.45698 32.1378 2.24074C31.7124 2.04354 29.0676 0.863467 25.8184 0.440367C23.8305 0.236347 22.4628 0.391493 22.4628 0.391493C21.3716 0.484695 20.3487 0.686726 19.3927 0.969455C17.9325 1.49485 16.5494 2.36748 15.3749 3.72941C15.3749 3.72941 15.3671 3.70582 15.303 3.70071C11.071 1.98615 7.99297 11.1057 7.98622 11.1256C7.07999 13.3326 6.25446 17.0566 6.25446 17.0566L5.62885 24.5096C5.15957 30.8743 2.7364 38.8302 2.7364 38.8302C1.79812 41.7615 0 43.1851 0 43.1851C0.413328 43.6093 0.918881 43.9884 1.49135 44.3265C1.82033 44.1572 2.60565 43.7321 3.35077 43.1718L2.08548 44.6505C4.89189 46.0718 8.929 46.6753 11.8515 46.9316C14.0863 47.1572 15.2065 47.1183 15.4745 47.1206L33.0058 47.1572Z" fill="#89959C"/>
<g id="Fill 43">
<path fill-rule="evenodd" clip-rule="evenodd" d="M36.8836 14.985C35.1176 12.7015 31.4343 11 27.954 11H20.5348C17.0549 11 13.3708 12.7015 11.6051 14.985C9.65311 17.5099 9.07008 20.7982 9.01178 22.8357C8.92363 25.9087 9.33635 29.4979 10.0484 34.5629C10.496 37.7501 11.9683 42.2888 12.9649 43.8065C13.9423 45.7521 19.7663 52.0633 24.2446 52.1C28.723 52.0633 34.546 45.7521 35.5238 43.8065C36.521 42.2888 37.9923 37.7501 38.4409 34.5629C39.1524 29.4979 39.5656 25.9087 39.477 22.8357C39.4182 20.7982 38.8361 17.5099 36.8836 14.985Z" fill="#FFF1E3"/>
<path d="M36.8836 14.985C35.1176 12.7015 31.4343 11 27.954 11H20.5348C17.0549 11 13.3708 12.7015 11.6051 14.985C9.65311 17.5099 9.07008 20.7982 9.01178 22.8357C8.92363 25.9087 9.33635 29.4979 10.0484 34.5629C10.496 37.7501 11.9683 42.2888 12.9649 43.8065C13.9423 45.7521 19.7663 52.0633 24.2446 52.1C28.723 52.0633 34.546 45.7521 35.5238 43.8065C36.521 42.2888 37.9923 37.7501 38.4409 34.5629C39.1524 29.4979 39.5656 25.9087 39.477 22.8357C39.4182 20.7982 38.8361 17.5099 36.8836 14.985" stroke="#89959C" stroke-width="2.28"/>
</g>
</g>
</svg>
