<svg width="70" height="70" viewBox="0 0 70 70" fill="none" xmlns="http://www.w3.org/2000/svg">
<path fill-rule="evenodd" clip-rule="evenodd" d="M14.4106 29.0812L1.57056 32.5219C1.10784 32.6457 0.832804 33.1214 0.957124 33.5841L10.4299 68.9366C10.5538 69.3998 11.0294 69.6744 11.4922 69.5505L24.3322 66.1099C24.7954 65.986 25.0694 65.5103 24.9451 65.0476L15.4728 29.6942C15.349 29.2319 14.8733 28.9574 14.4106 29.0812Z" fill="#2196F3"/>
<path fill-rule="evenodd" clip-rule="evenodd" d="M68.9548 30.6398C68.3668 28.4462 66.7929 26.7801 64.8383 25.9896C65.9178 24.4248 66.3316 22.4145 65.8007 20.4336C64.8407 16.8499 61.1562 14.7225 57.5721 15.683L54.3796 16.5384C53.7613 16.6627 53.1244 16.8115 52.4678 16.9877C43.9943 19.2581 41.0044 20.0808 40.8273 20.1067C39.0801 20.2085 37.4428 19.0757 36.9719 17.3189C36.9244 17.1408 36.5759 15.3974 36.5447 15.3494C36.0186 12.9336 35.2775 10.5408 34.2186 8.54782C32.2506 4.8475 30.2793 2.4475 28.6132 1.19422C28.5969 1.19806 28.5781 1.19518 28.5561 1.1803C27.8097 0.672938 26.8554 0.481418 25.9151 0.732938C24.4833 1.11694 23.5401 2.40958 23.5343 3.82462C23.637 5.11966 23.8809 6.54334 23.9764 7.58014C25.3098 21.9192 19.7687 26.8325 18.118 30.275L18.0676 31.0737L26.565 62.7878C40.0127 60.7997 42.85 65.1403 58.8354 60.8102L64.2316 59.3645L64.2311 59.3621C67.6156 58.4549 69.6239 54.9763 68.7167 51.5918C68.423 50.4945 67.8551 49.5451 67.1111 48.7896C69.1353 47.1302 70.1183 44.3841 69.3969 41.6913C68.9567 40.0478 67.9549 38.7048 66.6546 37.8101C68.6941 36.1305 69.6834 33.3581 68.9548 30.6398Z" fill="#2196F3"/>
</svg>
