<svg width="64" height="21" viewBox="0 0 64 21" fill="none" xmlns="http://www.w3.org/2000/svg">
<path fill-rule="evenodd" clip-rule="evenodd" d="M37.5 4.94999L35.967 7.1976V9.57722L36.7335 11.3505L37.5 13.7019L38.5 15.4L40.6243 18.7252L45.8966 19.9893L53.0944 19.4021L56.1336 17.4942L58.7403 13.7019C58.7403 13.7019 59.5593 9.42357 59.5593 8.90553C59.5593 8.38749 58.7403 5.59156 58.7403 5.59156C58.7403 5.59156 57.4189 3.81266 56.7763 3.81266C56.1336 3.81266 51.2484 3.21387 50.3661 3.21387C49.4839 3.21387 43.153 3.21407 43.153 3.21407L40.2397 4.42469L37.5 4.94999Z" fill="url(#paint0_linear_1_1953)"/>
<path fill-rule="evenodd" clip-rule="evenodd" d="M5.59993 4.94999L4.06702 7.1976V9.57722L4.83347 11.3505L5.59993 13.7019V15.6798L8.72429 18.7252L13.9966 19.9893L21.1944 19.4021L23.8547 17.2995L25.9088 14.5065C25.9088 14.5065 27.4095 8.60018 27.4095 8.08214C27.4095 7.5641 25.9088 5.35335 25.9088 5.35335C25.9088 5.35335 24.4973 4.04254 23.8547 4.04254C23.212 4.04254 19.3483 3.21387 18.4661 3.21387C17.5839 3.21387 11.253 3.21407 11.253 3.21407L7.18252 3.21387L5.59993 4.94999Z" fill="url(#paint1_linear_1_1953)"/>
<path fill-rule="evenodd" clip-rule="evenodd" d="M57.8244 13.2113C56.668 15.9102 55.7814 16.9127 53.1981 17.8377C50.6149 18.7633 44.1763 18.8405 41.5931 17.2982C39.0098 15.7558 36.6581 10.7053 37.082 7.31225C37.5062 3.9196 43.2126 2.80151 43.2126 2.80151C52.1572 1.49068 56.4752 3.11018 57.8632 4.26668C59.2512 5.42352 58.9813 10.5125 57.8244 13.2113ZM22.1431 17.2978C19.5598 18.8402 13.1212 18.763 10.538 17.8377C7.95507 16.9123 7.06815 15.9098 5.91166 13.211C4.75516 10.5122 4.48525 5.42284 5.87324 4.26634C7.26124 3.10984 11.5796 1.49034 20.5239 2.80151C20.5239 2.80151 26.2302 3.9196 26.6545 7.31225C27.0784 10.7053 24.7263 15.7558 22.1431 17.2978ZM63.287 2.06655C54.612 -1.39172 45.43 0.159114 38.401 1.8959C35.8133 2.53534 33.1311 2.69477 33.1043 2.69647L31.8709 2.70871L30.6468 2.69681C30.6053 2.69477 27.9228 2.535 25.3355 1.89556C11.9528 -1.41076 5.00604 0.24988 0.449068 2.06587C0.176432 2.17465 0.000339946 2.43437 0.000339946 2.72775L0 5.64312C0 5.85457 0.0931452 6.05378 0.255299 6.18975C0.828108 6.6684 1.56647 7.33775 1.82959 7.80518C1.97509 8.06353 2.35684 9.02286 2.96841 10.5669C3.7598 12.5665 4.84389 15.3044 5.27596 15.9999C5.67472 16.6427 7.91564 19.8624 12.872 20.1211C17.3753 20.3563 21.9673 20.3876 24.2963 18.0188C26.6232 15.6528 29.2425 9.28496 29.2687 9.22105C29.4682 8.66456 30.2681 7.61447 31.8682 7.70149C31.9298 7.69809 31.9909 7.69639 32.0504 7.69639C33.5234 7.69639 34.2761 8.68666 34.4722 9.23363C34.4936 9.2853 37.1129 15.6528 39.4398 18.0192C41.7691 20.3876 46.3618 20.357 50.8641 20.1214C55.8198 19.8627 58.0611 16.6431 58.4601 16.0006C58.8922 15.3051 59.976 12.5668 60.7677 10.5676C61.3789 9.02354 61.761 8.06387 61.9065 7.80586C62.1696 7.33809 62.908 6.66908 63.4811 6.19009C63.6426 6.05446 63.7358 5.85525 63.7358 5.64346V2.72808C63.7358 2.43471 63.5597 2.17499 63.287 2.06655Z" fill="#3A4850"/>
<path d="M14.3348 9.62699C14.2685 9.5607 14.1607 9.5607 14.0944 9.62699L9.50516 14.2163C9.43887 14.2825 9.43887 14.3903 9.50516 14.4566C9.53848 14.4899 9.58199 14.5066 9.62516 14.5066C9.66868 14.5066 9.71219 14.4899 9.7455 14.4566L14.3348 9.86733C14.4011 9.80104 14.4011 9.69328 14.3348 9.62699" stroke="white" stroke-width="0.55"/>
<path d="M20.8934 7.24735L11.8848 16.2559C11.8185 16.3222 11.8185 16.43 11.8848 16.4963C11.9181 16.5296 11.9616 16.5462 12.0051 16.5462C12.0483 16.5462 12.0918 16.5296 12.1251 16.4963L21.1337 7.48769C21.2 7.4214 21.2 7.31364 21.1337 7.24735C21.0674 7.18106 20.9597 7.18106 20.8934 7.24735" stroke="white" stroke-width="0.55"/>
<path d="M47.3095 9.62699C47.2432 9.5607 47.1355 9.5607 47.0692 9.62699L42.4799 14.2163C42.4136 14.2825 42.4136 14.3903 42.4799 14.4566C42.5132 14.4899 42.5567 14.5066 42.5999 14.5066C42.6434 14.5066 42.6869 14.4899 42.7202 14.4566L47.3095 9.86733C47.3758 9.80104 47.3758 9.69328 47.3095 9.62699" stroke="white" stroke-width="0.55"/>
<path d="M53.8681 7.24735L44.8595 16.2559C44.7932 16.3222 44.7932 16.43 44.8595 16.4963C44.8928 16.5296 44.9364 16.5462 44.9799 16.5462C45.023 16.5462 45.0666 16.5296 45.0999 16.4963L54.1084 7.48769C54.1747 7.4214 54.1747 7.31364 54.1084 7.24735C54.0421 7.18106 53.9344 7.18106 53.8681 7.24735" stroke="white" stroke-width="0.55"/>
<defs>
<linearGradient id="paint0_linear_1_1953" x1="36.0147" y1="3.21387" x2="36.0147" y2="19.9216" gradientUnits="userSpaceOnUse">
<stop stop-color="#89959C" stop-opacity="0.628551"/>
<stop offset="1" stop-color="#3A4850" stop-opacity="0.821351"/>
</linearGradient>
<linearGradient id="paint1_linear_1_1953" x1="4.11415" y1="3.21387" x2="4.11415" y2="19.9216" gradientUnits="userSpaceOnUse">
<stop stop-color="#89959C" stop-opacity="0.628551"/>
<stop offset="1" stop-color="#3A4850" stop-opacity="0.884943"/>
</linearGradient>
</defs>
</svg>
