<svg width="38" height="54" viewBox="0 0 38 54" fill="none" xmlns="http://www.w3.org/2000/svg">
<g id="oval">
<path id="Fill 1" fill-rule="evenodd" clip-rule="evenodd" d="M33.3759 37.4605C34.1009 38.0278 34.4763 36.715 34.4763 36.715C35.0802 35.1357 36.899 31.2274 36.899 31.2274C37.6426 29.9172 37.4863 28.1061 37.4863 28.1061C37.578 26.2452 36.6765 25.8014 35.6891 26.8504C35.7949 26.2746 36.0038 25.0242 36.0961 24.4101C37.4334 19.6444 35.235 13.0131 35.235 13.0131C35.0771 12.4896 35.1712 12.7793 35.0236 12.3952C34.2271 10.5711 32.3455 6.65863 26.8457 3.64108C21.3009 0.598499 24.2267 0.692591 24.9139 0.582817C24.9139 0.582817 17.6139 -0.320961 10.271 4.22929C10.7026 3.57148 11.5794 2.74721 11.5794 2.74721C8.57392 4.34374 7.6337 5.60408 7.35837 6.34746C7.09566 6.56976 6.83416 6.80114 6.57415 7.0405C4.20226 7.08397 2.20068 9.23818 2.20068 9.23818L3.89386 8.70774C0.991442 9.91993 1.15285 13.1785 1.15285 13.1785L2.33474 12.2428C2.06482 12.582 1.83247 12.9424 1.63379 13.3193C-0.0116001 16.4486 0.704687 20.743 1.61695 23.8422C1.82466 24.6255 2.11682 25.7918 2.35398 26.9932C0.0659502 24.8957 0.54087 30.0482 0.54087 30.0482C0.637357 31.2285 1.68999 32.9554 1.68999 32.9554C2.22774 34.2688 3.0877 36.1884 3.0877 36.1884C3.73516 37.8482 4.28612 38.0234 4.65133 37.8424C5.04299 39.2144 10.2142 47.4117 19.0017 47.4117C27.7886 47.4117 32.8688 39.418 33.3759 37.4605Z" fill="#89959C"/>
<path id="Fill 43" fill-rule="evenodd" clip-rule="evenodd" d="M23.2718 12H15.7281C12.1899 12 8.44404 13.6637 6.64881 15.8965C4.66406 18.3652 4.07125 21.5805 4.01197 23.5728C3.92235 26.5775 4.34199 30.0869 5.06596 35.0394C5.52107 38.1557 8.22661 43.1911 9.23999 44.6751C10.2338 46.5775 14.9467 52.7485 19.5002 52.7843C24.0536 52.7485 28.7657 46.5775 29.7599 44.6751C30.7738 43.1911 33.4784 38.1557 33.9344 35.0394C34.6579 30.0869 35.078 26.5775 34.9879 23.5728C34.9282 21.5805 34.3363 18.3652 32.3511 15.8965C30.5554 13.6637 26.8104 12 23.2718 12Z" fill="#FFF1E3" stroke="#89959C" stroke-width="2"/>
</g>
</svg>
